<?xml version="1.0" encoding="utf-8"?>
<!-- Generator: Adobe Illustrator 15.1.0, SVG Export Plug-In . SVG Version: 6.00 Build 0)  -->
<!DOCTYPE svg PUBLIC "-//W3C//DTD SVG 1.1//EN" "http://www.w3.org/Graphics/SVG/1.1/DTD/svg11.dtd">
<svg version="1.1" id="Camada_1" xmlns="http://www.w3.org/2000/svg" xmlns:xlink="http://www.w3.org/1999/xlink" x="0px" y="0px"
	 width="84px" height="96px" viewBox="0 0 84 96" enable-background="new 0 0 84 96" xml:space="preserve">
<g>
	<path fill-rule="evenodd" clip-rule="evenodd" fill="#EC802E" d="M51.255,34.042l20.258-11.61L51.255,10.736V34.042z
		 M45.346,44.239V0.5l38.021,21.951L45.346,44.239z"/>
	<polygon fill-rule="evenodd" clip-rule="evenodd" fill="#141745" points="48.072,29.139 48.072,15.601 36.303,22.395 	"/>
	<polygon fill-rule="evenodd" clip-rule="evenodd" fill="#EC802E" points="24.846,14.193 24.846,0.654 36.614,7.449 	"/>
	<polygon fill-rule="evenodd" clip-rule="evenodd" fill="#141745" points="33.112,41.563 33.112,20.671 14.952,31.155 	"/>
	<polygon fill-rule="evenodd" clip-rule="evenodd" fill="#EC802E" points="23.728,56.828 23.728,43.29 35.496,50.084 	"/>
	<polygon fill-rule="evenodd" clip-rule="evenodd" fill="#141745" points="58.511,62.762 58.511,41.87 40.35,52.354 	"/>
	<polygon fill-rule="evenodd" clip-rule="evenodd" fill="#141745" points="53.445,83.031 53.445,69.492 41.678,76.287 	"/>
	<polygon fill-rule="evenodd" clip-rule="evenodd" fill="#EC802E" points="41.182,70.799 41.182,57.262 52.95,64.056 	"/>
	<path fill-rule="evenodd" clip-rule="evenodd" fill="#141745" d="M32.745,85.301L12.486,73.692l20.259-11.697V85.301z M38.654,95.5
		V51.76L0.634,73.711L38.654,95.5z"/>
</g>
</svg>
